<svg id="a418efff-a0d4-4a3e-8093-8f003d692152" data-name="Capa 1" xmlns="http://www.w3.org/2000/svg" viewBox="0 0 703.47 956.11"><defs><style>.f7583211-3043-4c4b-a710-95751db42db3{fill:#36482d;}</style></defs><title>Logo hoja archivo original</title><path class="f7583211-3043-4c4b-a710-95751db42db3" d="M408.92,392v645c-35.5-9.39-64.74-31.32-86.22-63.09-201.51-299.07-10.89-753.11-10.89-753.11s48.33,67,97.11,171.24" transform="translate(-230.23 -80.83)"/><path class="f7583211-3043-4c4b-a710-95751db42db3" d="M808.81,693.73C758.4,803.36,687.69,909.26,588.5,993.39a243.87,243.87,0,0,1-68.76,41V679.11c23.42,57.58,78.91,88.45,138.57,88.45,53.4,0,110.08-24,150.5-73.83" transform="translate(-230.23 -80.83)"/><path class="f7583211-3043-4c4b-a710-95751db42db3" d="M863.25,551.58A357.15,357.15,0,0,0,865,515c0-154.53-94.41-200.77-185.7-214.2,128.87-137.82,254.17-220,254.17-220s7.31,225.08-70.26,470.75" transform="translate(-230.23 -80.83)"/><path class="f7583211-3043-4c4b-a710-95751db42db3" d="M754.22,504.3c0,160.94-73.54,230.15-138.57,230.15-46.84,0-88.45-35.05-95.91-99V509.22c41.62-69.21,90.54-132,140.06-186.9,50.12,22.53,94.42,73.54,94.42,182" transform="translate(-230.23 -80.83)"/></svg>